# xmcd
#
# Track frame offsets:
#	150
#	21056
#	41968
#	50122
#	77238
#	103972
#	134015
#	168652
#	190999
#	212309
#	243282
#	277273
#
# Disc length: 4034 seconds
#
# Revision: 1
# Processed by: cddbd v1.5.1PL2 Copyright (c) Steve Scherf et al.
# Submitted via: audiograbber 1.83.01
#
DISCID=b90fc00c
DTITLE=Dennis McClung Blues Band - Live! Out of the Ordinary
DYEAR=2006
DGENRE=Blues
TTITLE0=Let The Good Times Roll
TTITLE1=Rock This House
TTITLE2='Touch of the Delta
TTITLE3=Blues Before Sunrise
TTITLE4=T-Bone Shuffle
TTITLE5=Jelly Jelly
TTITLE6=Messin' With the Kid
TTITLE7=Hoochie Coochie Man
TTITLE8=Trouble No More
TTITLE9=How Blue Can You Get
TTITLE10=Look On Yonder Wall
TTITLE11=Everyday I Have The Blues
EXTD=
EXTT0=
EXTT1=
EXTT2=
EXTT3=
EXTT4=
EXTT5=
EXTT6=
EXTT7=
EXTT8=
EXTT9=
EXTT10=
EXTT11=
PLAYORDER=
